<?xml version="1.0" encoding="UTF-8" standalone="no"?>
<svg
   id="Capa_1"
   data-name="Capa 1"
   viewBox="0 0 456.56 456.55299"
   version="1.1"
   sodipodi:docname="stair.svg"
   inkscape:version="1.3.2 (091e20e, 2023-11-25, custom)"
   width="456.56012"
   height="456.55301"
   inkscape:export-filename="pngs\stair3.png"
   inkscape:export-xdpi="96"
   inkscape:export-ydpi="96"
   xmlns:inkscape="http://www.inkscape.org/namespaces/inkscape"
   xmlns:sodipodi="http://sodipodi.sourceforge.net/DTD/sodipodi-0.dtd"
   xmlns="http://www.w3.org/2000/svg"
   xmlns:svg="http://www.w3.org/2000/svg">
  <sodipodi:namedview
     id="namedview6"
     pagecolor="#505050"
     bordercolor="#eeeeee"
     borderopacity="1"
     inkscape:showpageshadow="0"
     inkscape:pageopacity="0"
     inkscape:pagecheckerboard="0"
     inkscape:deskcolor="#505050"
     inkscape:zoom="1"
     inkscape:cx="129"
     inkscape:cy="292.5"
     inkscape:window-width="1920"
     inkscape:window-height="1017"
     inkscape:window-x="-8"
     inkscape:window-y="-8"
     inkscape:window-maximized="1"
     inkscape:current-layer="Capa_1" />
  <defs
     id="defs1">
    <style
       id="style1">
      .cls-1 {
        fill: #eaeaea;
        stroke-width: 0px;
      }
    </style>
  </defs>
  <polygon
     class="cls-1"
     points="456.51,608.82 456.51,608.8 608.68,608.8 608.68,456.64 608.69,456.64 608.69,608.82 "
     id="polygon1"
     transform="translate(0.05022073,-0.07978775)" />
  <rect
     class="cls-1"
     x="608.73022"
     y="304.37024"
     width="0.0099999998"
     height="152.19"
     id="rect1" />
  <rect
     class="cls-1"
     x="608.73022"
     y="152.18021"
     width="0.0099999998"
     height="152.19"
     id="rect2" />
  <rect
     class="cls-1"
     x="608.73022"
     y="0.00021225"
     width="0.0099999998"
     height="152.19"
     id="rect3" />
  <rect
     class="cls-1"
     x="304.37021"
     y="608.72015"
     width="152.19"
     height="0.02"
     id="rect4" />
  <rect
     class="cls-1"
     x="152.18022"
     y="608.72015"
     width="152.19"
     height="0.02"
     id="rect5" />
  <path
     class="cls-1"
     d="m 0,456.54003 456.55813,0.0133 L 456.56013,0 H 325.77014 c -11.82,0 -21.4,9.58001 -21.4,21.4 v 130.78998 h -130.79 c -11.82,0 -21.4,9.58001 -21.4,21.4 v 130.79 H 21.4 c -11.82,0 -21.4,9.58 -21.4,21.4 v 130.77 z"
     id="path5"
     sodipodi:nodetypes="cccsscsscsscc"
     inkscape:export-filename="pngs\stair3.png"
     inkscape:export-xdpi="96"
     inkscape:export-ydpi="96" />
  <rect
     class="cls-1"
     x="0.00022073"
     y="608.72015"
     width="152.17999"
     height="0.02"
     id="rect6" />
</svg>
