<?xml version="1.0" encoding="UTF-8" standalone="no"?>
<!-- Created with Inkscape (http://www.inkscape.org/) -->

<svg
   width="210mm"
   height="297mm"
   viewBox="0 0 210 297"
   version="1.1"
   id="svg1"
   xml:space="preserve"
   inkscape:version="1.3.2 (091e20e, 2023-11-25, custom)"
   sodipodi:docname="logo solid.svg"
   xmlns:inkscape="http://www.inkscape.org/namespaces/inkscape"
   xmlns:sodipodi="http://sodipodi.sourceforge.net/DTD/sodipodi-0.dtd"
   xmlns="http://www.w3.org/2000/svg"
   xmlns:svg="http://www.w3.org/2000/svg"><sodipodi:namedview
     id="namedview1"
     pagecolor="#505050"
     bordercolor="#eeeeee"
     borderopacity="1"
     inkscape:showpageshadow="0"
     inkscape:pageopacity="0"
     inkscape:pagecheckerboard="0"
     inkscape:deskcolor="#505050"
     inkscape:document-units="mm"
     inkscape:zoom="0.73139029"
     inkscape:cx="397.18876"
     inkscape:cy="561.25984"
     inkscape:window-width="1920"
     inkscape:window-height="1017"
     inkscape:window-x="-8"
     inkscape:window-y="-8"
     inkscape:window-maximized="1"
     inkscape:current-layer="layer1" /><defs
     id="defs1"><style
       id="style1">
      .cls-1 {
        fill: #000;
        opacity: .1;
        stroke-width: 0px;
      }
    </style><style
       id="style1-3">
      .cls-1 {
        fill: #649760;
        stroke-width: 0px;
      }
    </style><style
       id="style1-31">
      .cls-1 {
        fill: #000;
        opacity: .1;
        stroke-width: 0px;
      }
    </style></defs><g
     inkscape:label="Capa 1"
     inkscape:groupmode="layer"
     id="layer1"><path
       class="cls-1"
       d="m 40.648149,79.163082 c 0.851958,-0.0979 3.545417,-0.375708 7.918979,0.01323 1.457854,0.129646 4.468813,0.455084 9.228667,1.590146 6.617229,1.579563 11.52525,3.516313 15.001875,4.902729 4.34975,1.735667 7.627937,3.312583 9.808104,4.368271 1.063625,0.513291 4.204229,2.047875 8.453438,4.3815 1.656291,0.910166 7.569729,4.191 15.139458,9.159873 3.52425,2.31246 9.14929,6.02456 15.86177,11.35327 2.29129,1.81769 4.55877,3.70417 7.89517,6.48229 3.5851,2.9845 5.42396,4.51644 7.68879,6.52198 3.84969,3.41313 6.61987,6.14363 8.48254,7.98513 2.77548,2.74637 7.62,7.5565 13.40379,14.35629 2.0664,2.42888 5.16467,6.08806 8.89529,11.22363 5.18055,7.13581 8.1968,12.46452 9.63877,15.13681 0.93134,1.72773 1.651,3.1697 2.30453,4.5667 1.01335,2.17488 2.51618,5.43455 3.76237,9.81075 0.7329,2.57969 1.03452,4.33653 1.15623,5.12498 0.11377,0.72761 0.38894,2.62467 0.39952,4.66196 0.005,1.10067 -0.0688,1.96586 -0.0873,2.18017 -0.0741,0.82285 -0.17198,1.43139 -0.20373,1.60867 -0.14552,0.85989 -0.31221,1.50283 -0.35983,1.67745 -0.35455,1.32557 -0.79111,2.2913 -0.8943,2.51884 -0.6297,1.37318 -1.3282,2.33627 -1.62454,2.72256 -0.32544,0.42862 -1.67746,2.15106 -4.11162,3.63273 -0.9234,0.56092 -2.14048,1.1721 -4.00844,1.7436 -4.50585,1.37319 -8.47725,1.18798 -11.37708,1.02923 -3.69888,-0.20373 -6.55902,-0.80698 -8.73919,-1.26735 -1.30704,-0.27517 -2.87867,-0.64559 -5.02973,-1.25677 -2.40242,-0.68263 -8.56192,-2.52413 -16.83808,-6.19919 -2.84957,-1.26471 -6.49023,-2.98715 -10.64154,-5.23346 -4.49528,-2.42358 -10.05417,-5.60123 -16.2613,-9.59908 -3.48457,-2.24367 -11.943298,-7.81579 -22.338778,-16.24013 -6.768041,-5.54302 -12.176125,-10.45368 -16.203083,-14.28485 -4.831292,-4.59846 -8.172979,-8.11477 -9.469437,-9.4959 -2.923646,-3.11414 -5.368396,-5.92931 -5.852584,-6.48493 -0.391583,-0.44979 -0.931333,-1.07421 -1.645708,-1.92088 -0.600604,-0.71173 -4.016375,-4.90273 -4.016375,-4.90273 v 0 c -0.820208,-1.03716 -1.545167,-1.97379 -2.164292,-2.78871 0,0 -0.989541,-1.30175 -1.883833,-2.52677 -0.156104,-0.21166 -0.328083,-0.45243 -0.328083,-0.45243 -0.441855,-0.6059 -0.804334,-1.11125 -0.949854,-1.31498 -0.590021,-0.8255 -1.169459,-1.67217 -1.550459,-2.22515 -0.783166,-1.14564 -1.415521,-2.06904 -2.225146,-3.3311 -0.05027,-0.0767 -0.497416,-0.78052 -1.018645,-1.6219 -1.15623,-1.86796 -2.677583,-4.33652 -4.410604,-7.69673 -0.788459,-1.52664 -1.804459,-3.50837 -2.942167,-6.23887 -0.809625,-1.94469 -1.889125,-4.60375 -2.817812,-8.21796 -0.64823,-2.52677 -0.87048,-4.1619 -0.976313,-5.095877 -0.116417,-1.04775 -0.325437,-2.928937 -0.171979,-4.963583 0.137583,-1.820333 0.47625,-6.297083 3.786187,-9.982729 2.201334,-2.450041 4.74398,-3.471333 6.175375,-4.045479 2.307167,-0.926041 4.196292,-1.143 6.135687,-1.367896 z m 48.008646,61.182248 h 21.769915 c 0.53446,0.0212 1.02394,0.11113 1.46579,0.24342 0,0 1.11919,0.34131 2.1008,1.15887 1.19062,0.99219 26.36043,24.70944 60.68483,57.17911 0.12435,-0.35984 0.26723,-0.80698 0.40481,-1.32821 0.0608,-0.23284 0.21696,-0.83873 0.35454,-1.64836 0,0 0.24871,-1.4605 0.29634,-3.02154 0.0423,-1.36789 -0.0476,-4.19894 -0.8255,-7.91369 -0.72496,-3.46868 -1.70128,-6.04043 -2.413,-7.88458 -0.31486,-0.82021 -0.84403,-2.14312 -1.65365,-3.88937 -2.85485,-6.1595 -6.49023,-11.74221 -7.08819,-12.65502 -1.97114,-3.00832 -6.78921,-10.10179 -14.40921,-18.55523 -4.66989,-5.18054 -8.54075,-8.81592 -10.88231,-11.00931 -1.32821,-1.24355 -6.81566,-6.34207 -14.65791,-12.48569 -1.63248,-1.28059 -3.02155,-2.33363 -4.02961,-3.08769 1.60338,2.3151 2.65906,4.40531 3.34963,5.98223 0.70643,1.61396 1.16945,3.1115 1.39964,3.85498 0.0661,0.20902 0.13229,0.45773 0.26194,0.95514 0.34396,1.3044 0.39687,1.70921 0.30692,2.15371 -0.0767,0.37836 -0.23019,0.63765 -0.27782,0.71173 -0.0661,0.10584 -0.1852,0.29634 -0.40745,0.47625 -0.27253,0.21961 -0.5424,0.29634 -0.7038,0.33867 -0.3757,0.10054 -0.70643,0.082 -0.92604,0.0476 -3.26231,-0.0317 -6.52727,-0.0661 -9.78958,-0.0979 -0.11377,-2.06375 -0.51858,-5.17261 -1.93675,-8.65188 -0.77523,-1.90234 -2.46592,-5.91607 -6.55373,-9.4509 -1.20385,-1.04246 -5.47423,-4.63286 -11.85598,-5.3393 -0.388937,-0.0423 -1.553104,-0.16139 -3.098271,-0.10318 -5.68325,0.21431 -9.741958,2.55852 -11.615208,3.67241 -3.556,2.11138 -5.730875,4.48734 -6.979708,5.87375 -0.624417,0.69321 -2.815167,3.18294 -4.847167,7.00088 -1.867958,3.51102 -2.693458,6.43202 -2.865438,7.05908 -0.288395,1.0504 -1.529291,5.7785 -0.936625,12.14173 0.309563,3.32052 0.896938,8.90058 4.619625,14.63146 2.569105,3.95552 5.511271,6.25475 7.366,7.68085 0,0 4.926542,3.77561 9.572625,4.97946 2.129896,0.55298 3.783542,0.66146 5.109105,0.74084 2.76225,0.16668 8.662458,0.44979 14.380102,-2.68553 2.84692,-1.56104 4.16719,-3.15912 4.63815,-3.76766 1.35996,-1.76477 1.88383,-3.42106 2.02671,-3.89731 0.20108,-0.67469 0.62441,-2.32569 0.42598,-4.4159 -0.0794,-0.85196 -0.24078,-1.53458 -0.35719,-1.96056 -0.40481,-1.47902 -1.03452,-2.60879 -1.51077,-3.33111 -0.42334,-0.64029 -1.68804,-2.413 -4.02432,-3.73591 -1.27,-0.71967 -2.32304,-1.00542 -3.34697,-1.28059 -2.286005,-0.61648 -4.659317,-0.60325 -7.421567,-0.60325 -2.76225,0 -4.699,-1.87589 -5.12498,-4.08252 z m -14.496521,27.74421 c 0.910167,0.84402 1.9685,1.8124 3.159125,2.87073 0.534458,0.47625 1.584854,1.40494 2.939521,2.5691 1.934104,1.65894 3.444875,2.89719 4.050771,3.38932 0.375708,0.30427 1.407583,1.14564 2.772833,2.2172 0.219604,0.17198 0.780521,0.61384 1.434042,1.11919 3.600979,2.78606 6.680729,4.96094 7.551208,5.57213 0,0 0.635,0.44714 1.259417,0.87841 7.450669,5.15144 14.517689,9.09109 14.517689,9.09109 3.68564,2.05581 9.12283,5.06147 16.67669,8.06979 2.43681,0.96837 5.26785,2.08756 9.19162,3.23585 9.23396,2.7014 15.367,2.88661 17.25877,2.91306 0,0 5.45306,0.0265 9.67846,-1.41552 0.77523,-0.26458 1.4949,-0.58473 1.4949,-0.58473 0.67204,-0.29633 1.22237,-0.59002 1.63247,-0.82285 -16.53645,-15.92792 -33.07291,-31.85583 -49.60672,-47.78375 -1.73302,2.27277 -3.4978,3.94758 -4.91067,5.12233 -0.75142,0.62442 -3.08504,2.50296 -6.56167,4.19894 -0.57414,0.28046 -2.32039,1.11125 -4.72546,1.88119 -1.56368,0.50006 -3.772954,1.09273 -6.471704,1.44462 -3.39725,0.4445 -6.0325,0.30957 -6.902979,0.25136 -1.992313,-0.127 -4.6355,-0.47361 -7.646459,-1.37319 -2.4765,-1.00277 -3.513666,-1.42081 -3.944937,-1.59544 -0.03175,-0.0132 -0.822854,-0.33073 -0.822854,-0.33073 -0.449792,-0.18785 -0.844021,-0.36247 -1.172105,-0.51329 -0.28575,-0.13493 -0.568854,-0.27252 -0.854604,-0.40746 z M 97.300732,103.9466 c 2.090209,0.39688 4.831288,1.09538 7.903108,2.40242 -1.63777,-1.22238 -4.07723,-2.94481 -7.178149,-4.78367 -5.2705,-3.124727 -9.548813,-4.878914 -14.411854,-6.836831 -5.63298,-2.270125 -9.527646,-3.378729 -10.514542,-3.659187 -3.931708,-1.127125 -6.831542,-1.698625 -9.30275,-2.066396 -6.852708,-1.018645 -10.768542,-0.505354 -11.773958,-0.359833 -2.021417,0.291041 -4.01373,0.592666 -6.424084,1.709208 -1.616604,0.748771 -4.651375,2.196042 -6.868583,5.484812 -1.775354,2.632605 -2.177521,5.177897 -2.4765,7.064377 -0.433917,2.74373 -0.219604,4.92654 -0.02381,6.77598 0.129645,1.23031 0.39952,3.15119 1.23825,6.15421 0.785812,2.81516 2.106083,6.72041 4.405312,11.25537 2.794,5.51127 5.318125,9.49854 7.037917,12.07029 2.452687,3.66713 4.71752,6.60929 6.426729,8.71538 -0.0291,-0.25665 -0.07937,-0.64559 -0.153459,-1.1139 -0.201083,-1.27794 -0.452437,-2.19075 -0.510645,-2.53471 -0.346605,-2.04523 -0.47625,-3.61156 -0.505355,-3.98727 -0.103187,-1.30175 -0.261937,-3.42106 -0.0291,-6.00868 0.127,-1.41553 0.47625,-4.16719 1.637771,-7.42157 0.420688,-1.17739 2.053167,-5.52714 5.947833,-10.05946 1.738313,-2.02141 3.309938,-3.35491 4.294188,-4.18041 4.029604,-3.38402 7.744354,-5.18584 9.347729,-5.90815 4.265083,-1.92087 7.805208,-2.60614 8.987896,-2.81252 3.066521,-0.53975 5.519208,-0.56092 6.696604,-0.54504 0.754063,0.0106 3.156479,0.0688 6.252104,0.65617 z"
       id="path1"
       style="opacity:1;fill:#ffffff" /></g></svg>
