<?xml version="1.0" encoding="UTF-8" standalone="no"?>
<!-- Created with Inkscape (http://www.inkscape.org/) -->

<svg
   width="120.79686mm"
   height="120.80749mm"
   viewBox="0 0 120.79686 120.80749"
   version="1.1"
   id="svg1"
   xml:space="preserve"
   xmlns="http://www.w3.org/2000/svg"
   xmlns:svg="http://www.w3.org/2000/svg"><defs
     id="defs1"><style
       id="style1">
      .cls-1 {
        fill: #000;
        opacity: .1;
        stroke-width: 0px;
      }
    </style><style
       id="style1-3">
      .cls-1 {
        fill: #649760;
        stroke-width: 0px;
      }
    </style><style
       id="style1-31">
      .cls-1 {
        fill: #000;
        opacity: .1;
        stroke-width: 0px;
      }
    </style><style
       id="style1-4">
      .cls-1 {
        fill: #eaeaea;
        stroke-width: 0px;
      }
    </style><style
       id="style1-9">
      .cls-1 {
        fill: #000;
        opacity: .1;
        stroke-width: 0px;
      }
    </style><style
       id="style1-3-2">
      .cls-1 {
        fill: #649760;
        stroke-width: 0px;
      }
    </style><style
       id="style1-31-0">
      .cls-1 {
        fill: #000;
        opacity: .1;
        stroke-width: 0px;
      }
    </style><style
       id="style1-4-6">
      .cls-1 {
        fill: #eaeaea;
        stroke-width: 0px;
      }
    </style><style
       id="style1-5">
      .cls-1 {
        fill: #000;
        opacity: .1;
        stroke-width: 0px;
      }
    </style><style
       id="style1-3-7">
      .cls-1 {
        fill: #649760;
        stroke-width: 0px;
      }
    </style><style
       id="style1-31-3">
      .cls-1 {
        fill: #000;
        opacity: .1;
        stroke-width: 0px;
      }
    </style><style
       id="style1-4-5">
      .cls-1 {
        fill: #eaeaea;
        stroke-width: 0px;
      }
    </style><style
       id="style1-9-9">
      .cls-1 {
        fill: #000;
        opacity: .1;
        stroke-width: 0px;
      }
    </style><style
       id="style1-3-2-4">
      .cls-1 {
        fill: #649760;
        stroke-width: 0px;
      }
    </style><style
       id="style1-31-0-4">
      .cls-1 {
        fill: #000;
        opacity: .1;
        stroke-width: 0px;
      }
    </style><style
       id="style1-4-6-0">
      .cls-1 {
        fill: #eaeaea;
        stroke-width: 0px;
      }
    </style><style
       id="style1-0">
      .cls-1 {
        fill: #649760;
        stroke-width: 0px;
      }
    </style><style
       id="style1-2">
      .cls-1 {
        fill: #000;
        opacity: .1;
        stroke-width: 0px;
      }
    </style><style
       id="style1-52">
      .cls-1 {
        fill: #000;
        opacity: .1;
        stroke-width: 0px;
      }
    </style><style
       id="style1-3-4">
      .cls-1 {
        fill: #649760;
        stroke-width: 0px;
      }
    </style><style
       id="style1-31-8">
      .cls-1 {
        fill: #000;
        opacity: .1;
        stroke-width: 0px;
      }
    </style></defs><g
     id="layer1"
     transform="translate(-98.142118,-157.44019)"><g
       id="g1"
       transform="matrix(0.26458333,0,0,0.26458333,24.233994,49.335793)"
       style="opacity:1;fill:#ffffff"><path
         class="cls-1"
         d="m 340.4028,409.29344 c 3.22,-0.37002 13.4,-1.42 29.93,0.05 5.51,0.49 16.89,1.72001 34.88,6.01 25.01,5.97001 43.56,13.29001 56.7,18.53 16.44,6.56 28.83,12.52 37.07,16.51 4.02,1.94 15.89,7.74 31.95,16.56 6.26,3.44 28.61,15.84 57.22,34.61999 13.32,8.74001 34.58,22.76999 59.95,42.91 8.66,6.87001 17.23,14.00001 29.84,24.49999 13.55,11.28001 20.5,17.07001 29.06,24.65001 14.55,12.90002 25.02,23.22002 32.06,30.18002 10.49,10.37998 28.8,28.56 50.66,54.25999 7.81,9.18002 19.52,23.00999 33.62,42.42002 19.58,26.96999 30.98,47.11 36.43,57.20999 3.52,6.53001 6.24,11.97997 8.71,17.25997 3.83,8.22002 9.51,20.53999 14.22,37.08002 2.77,9.75 3.91,16.3901 4.37,19.37 0.43,2.75 1.47,9.92 1.51,17.62 0.019,4.16 -0.26,7.43 -0.3299,8.24 -0.2801,3.11 -0.65,5.41 -0.77,6.08 -0.55,3.25 -1.18,5.68 -1.36,6.34 -1.3401,5.01 -2.9901,8.66 -3.3801,9.52 -2.3799,5.19 -5.0199,8.83 -6.14,10.29 -1.23,1.62 -6.34,8.13 -15.5399,13.73 -3.4901,2.12 -8.09,4.43 -15.15,6.59 -17.03,5.19 -32.04,4.49 -43,3.89 -13.9801,-0.77 -24.79,-3.05 -33.03,-4.79 -4.94,-1.04 -10.8801,-2.44 -19.01,-4.75 -9.0801,-2.58 -32.3601,-9.54 -63.64,-23.43 -10.7701,-4.78 -24.53,-11.29 -40.22,-19.78 -16.9901,-9.16 -38,-21.17 -61.4601,-36.28 -13.17,-8.48 -45.14,-29.54003 -84.43,-61.38001 -25.58,-20.95 -46.02,-39.50997 -61.24,-53.98999 -18.26,-17.38 -30.89,-30.66999 -35.79,-35.89001 -11.05,-11.76998 -20.29,-22.40999 -22.12,-24.50998 -1.48,-1.69999 -3.52,-4.06 -6.22,-7.26001 -2.27,-2.69001 -15.18,-18.53001 -15.18,-18.53001 v 0 c -3.1,-3.91997 -5.84,-7.45999 -8.18,-10.54 0,0 -3.74,-4.92 -7.12,-9.55 -0.59,-0.79998 -1.24,-1.70997 -1.24,-1.70997 -1.67,-2.29002 -3.04,-4.2 -3.59,-4.97001 -2.23,-3.12 -4.42,-6.32001 -5.86,-8.41001 -2.96,-4.32998 -5.35,-7.82 -8.41,-12.58999 -0.19,-0.28989 -1.88,-2.94999 -3.85,-6.13001 -4.37,-7.06001 -10.12,-16.39 -16.67,-29.09001 -2.98,-5.76997 -6.82,-13.25998 -11.12,-23.57998 -3.06,-7.35001 -7.14,-17.4 -10.65,-31.06 -2.45,-9.55 -3.29,-15.73002 -3.69,-19.26001 -0.44,-3.96 -1.23,-11.07 -0.65,-18.76 0.52,-6.88 1.8,-23.8 14.31,-37.73 8.32,-9.25999 17.93,-13.12 23.34,-15.29 8.72,-3.49999 15.86,-4.32 23.19,-5.17 z m 181.45,231.24 h 82.28 c 2.02,0.0801 3.87,0.42001 5.54,0.92001 0,0 4.23,1.28999 7.94,4.37998 4.5,3.75001 99.63,93.39001 229.36,216.11001 0.47,-1.36 1.01,-3.05 1.53,-5.02 0.2298,-0.88 0.82,-3.17 1.34,-6.23 0,0 0.94,-5.52 1.12,-11.42 0.1599,-5.17 -0.1799,-15.87003 -3.12,-29.91003 -2.74,-13.10996 -6.43,-22.82996 -9.12,-29.79998 -1.19,-3.1 -3.19,-8.09998 -6.25,-14.69998 -10.79,-23.28 -24.53,-44.38 -26.79,-47.82999 -7.45,-11.37003 -25.66,-38.18 -54.46,-70.13001 -17.65,-19.57999 -32.28,-33.32001 -41.13,-41.60999 -5.02,-4.70003 -25.76,-23.97003 -55.4,-47.19001 -6.17,-4.84003 -11.42,-8.82002 -15.23,-11.67001 6.06,8.74998 10.05,16.64999 12.66,22.61 2.67,6.10001 4.42,11.76 5.29,14.57001 0.2498,0.78999 0.5,1.73 0.99,3.60998 1.3,4.93001 1.5,6.46 1.16,8.14 -0.2899,1.43002 -0.87,2.41002 -1.05,2.69 -0.2498,0.40003 -0.7,1.12003 -1.54,1.8 -1.03,0.83003 -2.05,1.12003 -2.66,1.28002 -1.42,0.37999 -2.67,0.30992 -3.5,0.1799 -12.33,-0.11981 -24.67,-0.24982 -37,-0.37001 -0.43,-7.8 -1.96,-19.55003 -7.32,-32.70002 -2.93,-7.18995 -9.32,-22.35995 -24.77,-35.71994 -4.55,-3.94001 -20.69,-17.51002 -44.81,-20.18003 -1.47,-0.15988 -5.87,-0.60998 -11.71,-0.38997 -21.48,0.80999 -36.82,9.66999 -43.9,13.87997 -13.44,7.98002 -21.66,16.96003 -26.38,22.2 -2.36,2.62001 -10.64,12.03001 -18.32,26.46002 -7.06,13.27 -10.18,24.31 -10.83,26.67999 -1.09,3.97001 -5.78,21.84 -3.54,45.89 1.17,12.55 3.39,33.63999 17.46,55.30001 9.71,14.95 20.83,23.64 27.84,29.02998 0,0 18.62,14.27003 36.18,18.82001 8.05,2.09 14.3,2.50001 19.31,2.80003 10.44,0.62997 32.74,1.69999 54.35,-10.15004 10.76,-5.89999 15.75,-11.93998 17.53,-14.23997 5.14,-6.67 7.12,-12.92999 7.66,-14.72999 0.76,-2.55001 2.36,-8.79001 1.61,-16.69002 -0.3001,-3.22001 -0.91,-5.79999 -1.35,-7.40999 -1.53,-5.59 -3.91,-9.85999 -5.71,-12.59002 -1.6,-2.42 -6.38,-9.12 -15.21,-14.11998 -4.8,-2.72001 -8.78,-3.80001 -12.65,-4.84002 -8.64,-2.33001 -17.61,-2.28 -28.05,-2.28 -10.44,0 -17.76,-7.08998 -19.37,-15.43 z m -54.79,104.86 c 3.44,3.19 7.44,6.85002 11.94,10.85001 2.02,1.8 5.99,5.31001 11.11,9.70998 7.31,6.27001 13.02,10.95001 15.31,12.81003 1.42,1.15 5.32,4.32998 10.48,8.37997 0.83,0.65 2.95,2.32002 5.42,4.23001 13.61,10.52999 25.25,18.74997 28.54,21.06007 0,0 2.4,1.6899 4.76,3.3199 28.16,19.47003 54.87,34.36013 54.87,34.36013 13.93,7.7699 34.48,19.1299 63.03,30.4999 9.21,3.66 19.91,7.89 34.74,12.23 34.9,10.21 58.08,10.91 65.23,11.01 0,0 20.61,0.1002 36.58,-5.35 2.93,-1 5.65,-2.21 5.65,-2.21 2.54,-1.12 4.62,-2.23 6.17,-3.11 -62.5,-60.2 -125,-120.39999 -187.49,-180.6 -6.55,8.59 -13.22,14.91999 -18.56,19.35999 -2.84,2.36001 -11.66,9.46 -24.8,15.87001 -2.17,1.06 -8.77,4.2 -17.86,7.11001 -5.91,1.88999 -14.26,4.13 -24.46,5.45998 -12.84,1.68 -22.8,1.17003 -26.09,0.95002 -7.53,-0.48 -17.52,-1.79002 -28.9,-5.19001 -9.36,-3.79 -13.28,-5.36999 -14.91,-6.03001 -0.12,-0.0499 -3.11,-1.25 -3.11,-1.25 -1.7,-0.70999 -3.19,-1.36997 -4.43,-1.94 -1.08,-0.50997 -2.15,-1.02999 -3.23,-1.54 z m 87.46,-242.43001 c 7.9,1.50002 18.26,4.14002 29.87,9.08001 -6.19,-4.62002 -15.41,-11.12999 -27.13,-18.08001 -19.92,-11.80999 -36.09,-18.43999 -54.47,-25.83999 -21.29,-8.58 -36.01,-12.77 -39.74,-13.83 -14.86,-4.26 -25.82,-6.42 -35.16,-7.81 -25.9,-3.85 -40.7,-1.91 -44.5,-1.36 -7.64,1.1 -15.17,2.24 -24.28,6.46 -6.11,2.83 -17.58,8.3 -25.96,20.73 -6.71,9.95 -8.23,19.57 -9.36,26.70001 -1.64,10.37 -0.83,18.61999 -0.09,25.61 0.49,4.64999 1.51,11.91001 4.68,23.26001 2.97,10.63997 7.96,25.39997 16.65,42.53998 10.56,20.82999 20.1,35.89999 26.6,45.61999 9.27,13.86002 17.83,24.98 24.29,32.94002 -0.11,-0.97001 -0.3,-2.44002 -0.58,-4.21001 -0.76,-4.83001 -1.71,-8.28 -1.93,-9.58001 -1.31,-7.73 -1.8,-13.64999 -1.91,-15.07 -0.39,-4.92 -0.99,-12.92999 -0.11,-22.70997 0.48,-5.35003 1.8,-15.75001 6.19,-28.05003 1.59,-4.44998 7.76,-20.88998 22.48,-38.02001 6.57,-7.63997 12.51,-12.67997 16.23,-15.79997 15.23,-12.79 29.27,-19.60003 35.33,-22.33002 16.12,-7.25998 29.5,-9.84997 33.97,-10.62999 11.59,-2.04 20.86,-2.12002 25.31,-2.06 2.85,0.0401 11.93,0.26003 23.63,2.48002 z"
         id="path1"
         style="opacity:1;fill:#ffffff" /></g></g></svg>
