<?xml version="1.0" encoding="UTF-8" standalone="no"?>
<svg
   id="Capa_1"
   data-name="Capa 1"
   viewBox="0 0 608.73998 608.72995"
   version="1.1"
   sodipodi:docname="stair1.svg"
   inkscape:version="1.3.2 (091e20e, 2023-11-25, custom)"
   width="608.73999"
   height="608.72998"
   inkscape:export-filename="stair4.svg"
   inkscape:export-xdpi="96"
   inkscape:export-ydpi="96"
   xmlns:inkscape="http://www.inkscape.org/namespaces/inkscape"
   xmlns:sodipodi="http://sodipodi.sourceforge.net/DTD/sodipodi-0.dtd"
   xmlns="http://www.w3.org/2000/svg"
   xmlns:svg="http://www.w3.org/2000/svg">
  <sodipodi:namedview
     id="namedview6"
     pagecolor="#505050"
     bordercolor="#eeeeee"
     borderopacity="1"
     inkscape:showpageshadow="0"
     inkscape:pageopacity="0"
     inkscape:pagecheckerboard="0"
     inkscape:deskcolor="#505050"
     inkscape:zoom="256"
     inkscape:cx="610.24414"
     inkscape:cy="0.70898438"
     inkscape:window-width="1920"
     inkscape:window-height="1017"
     inkscape:window-x="-8"
     inkscape:window-y="-8"
     inkscape:window-maximized="1"
     inkscape:current-layer="Capa_1" />
  <defs
     id="defs1">
    <style
       id="style1">
      .cls-1 {
        fill: #eaeaea;
        stroke-width: 0px;
      }
    </style>
  </defs>
  <polygon
     class="cls-1"
     points="608.69,456.64 608.69,608.82 456.51,608.82 456.51,608.8 608.68,608.8 608.68,456.64 "
     id="polygon1"
     transform="translate(-1.0380705,-0.11393083)" />
  <rect
     class="cls-1"
     x="607.64191"
     y="304.33609"
     width="0.0099999998"
     height="152.19"
     id="rect1" />
  <rect
     class="cls-1"
     x="607.64191"
     y="152.14606"
     width="0.0099999998"
     height="152.19"
     id="rect2" />
  <rect
     class="cls-1"
     x="607.64191"
     y="-0.033930831"
     width="0.0099999998"
     height="152.19"
     id="rect3" />
  <rect
     class="cls-1"
     x="303.28192"
     y="608.68604"
     width="152.19"
     height="0.02"
     id="rect4" />
  <rect
     class="cls-1"
     x="151.09193"
     y="608.68604"
     width="152.19"
     height="0.02"
     id="rect5" />
  <path
     class="cls-1"
     d="M 0.00999997,608.73001 V 0 H 608.74001 v 130.77 c 0,11.82 -9.58,21.4 -21.4,21.4 H 456.55 v 130.79 c 0,11.82 -9.58,21.4 -21.4,21.4 H 304.36 v 130.79 c 0,11.82 -9.58,21.4 -21.4,21.4 H 152.17 v 130.78001 c 0,11.82 -9.58,21.4 -21.4,21.4 H -2.5583038e-8 Z"
     id="path5" />
  <rect
     class="cls-1"
     x="-1.0880705"
     y="608.68604"
     width="152.17999"
     height="0.02"
     id="rect6" />
</svg>
